<svg xmlns="http://www.w3.org/2000/svg" xmlns:xlink="http://www.w3.org/1999/xlink" width="360" height="129" viewBox="0 0 360 129">
    <defs>
        <path id="a" d="M0 0h360v129H0z"/>
    </defs>
    <g fill="none" fill-rule="evenodd">
        <mask id="b" fill="#fff">
            <use xlink:href="#a"/>
        </mask>
        <g fill-rule="nonzero" mask="url(#b)">
            <g fill="#FFF" transform="translate(53 53)">
                <path d="M85.446 46.145c.779.3 1.644-.17 1.957-.985l7.835-20.41c.313-.816-.045-1.669-.824-1.968l-6.25-2.399-8.968 23.363 6.25 2.4zM76.561 17.37l-1.13 2.945-1.974-.757c-1.36-.522-2.848.02-3.34 1.305L66.13 31.245c-.493 1.284.223 2.751 1.583 3.274l1.974.757-1.085 2.827c-.28.726.138 1.63.925 1.932l6.032 2.316c.779.298 1.643-.06 1.926-.8l1.174-3.066 1.743-4.532-3.906-1.499 2.067-5.384 3.945 1.398 1.7-4.43 1.25-3.254c.277-.723-.139-1.493-.93-1.796l-6.032-2.316c-.802-.308-1.663-.014-1.936.697zm-7.517 14.72l3.776-9.838 1.627.625-3.776 9.837-1.627-.625z"/>
                <ellipse cx="19.881" cy="14.703" rx="14.802" ry="14.703"/>
                <path d="M77.212 48.085C70.68 54.38 65.3 49.994 60.23 44.933c-.306-.536-1.572-1.663-2.05-2.168A354.794 354.794 0 0 0 45.85 30.397c5.26-3.259 10.136-6.033 16.706-1.891 5.364 3.382 9.36-4.102 6.634-6.388-10.59-8.882-23.58-4.693-33.68 5.163-.42.41-2.34 2.17-2.767 2.587-6.278 6.128-13.757 16.561-21.772 13.016-5.506-2.434-8.829 3.764-4.425 5.938 10.844 5.354 20.952-2.238 27.109-8.444a344.252 344.252 0 0 1 12.698 12.675c-3.56 3.072-6.686 6.545-9.429 10.383a5.557 5.557 0 0 0-.312.497c-.666.577-1.401 2.105-1.628 3.163-.227 1.058-2.028 9.788-3.154 15.044-1.21 5.643 8.407 7.048 9.613 1.43 1.071-4.993 1.663-9.988 2.736-14.978.261-.244.512-.518.737-.836 3.181-4.453 7.126-8.427 11.794-11.486.23-.15.433-.31.62-.48 8.283 5.841 18.137 7.64 27.058-.951 4.7-4.526-2.461-11.294-7.176-6.754z"/>
            </g>
            <g fill="#FABF13">
                <path d="M86.699 49.403a2.117 2.117 0 0 1 0-4.234h3.891c5.233 0 7.036 1.827 7.036 7.118v4.327a2.117 2.117 0 0 1-4.234 0v-4.327c0-2.966.08-2.884-2.802-2.884H86.7zM61.096 88.392a2.117 2.117 0 0 1 0 4.234h-3.913c-5.2 0-7.014-1.87-7.014-7.182v-3.745a2.117 2.117 0 0 1 4.234 0v3.745c0 3.002-.052 2.948 2.78 2.948h3.913zM54.403 56.614a2.117 2.117 0 1 1-4.234 0v-4.276c0-5.325 1.79-7.17 6.994-7.17h3.933a2.117 2.117 0 1 1 0 4.235h-3.933c-2.837 0-2.76-.08-2.76 2.935v4.276zM93.008 79.42a2.309 2.309 0 0 1 4.618 0v4.637c0 6.394-2.13 8.569-8.422 8.569H84.42a2.309 2.309 0 0 1 0-4.618h4.784c3.72 0 3.804-.087 3.804-3.951V79.42z"/>
            </g>
        </g>
    </g>
</svg>
